<svg width="1000" height="1000" viewBox="0 0 1000 1000" fill="none" xmlns="http://www.w3.org/2000/svg">
<rect width="1000" height="1000" fill="white"/>
<rect width="174" height="179" transform="translate(454 264)" fill="#AB8628" fill-opacity="0.71"/>
<rect x="500" y="312" width="87" height="82" fill="#F9DF9E" fill-opacity="0.71"/>
<rect x="280" y="264" width="174" height="179" fill="#AB8628" fill-opacity="0.71"/>
<rect x="281" y="263.831" width="254.32" height="34.8823" transform="rotate(-45 281 263.831)" fill="#C8A343" fill-opacity="0.71"/>
<rect x="333.469" y="267.572" width="215.881" height="34.8823" transform="rotate(-45 333.469 267.572)" fill="#F1D180" fill-opacity="0.71"/>
<rect x="599.935" y="284.321" width="159.599" height="35.2164" transform="rotate(-133 599.935 284.321)" fill="#C8A343" fill-opacity="0.71"/>
<rect x="547.788" y="291.058" width="128.768" height="34.8823" transform="rotate(-133 547.788 291.058)" fill="#F1D180" fill-opacity="0.71"/>
<rect x="321" y="311" width="98" height="83" fill="#F9DF9E" fill-opacity="0.71"/>
<rect x="237" y="250" width="430" height="85" fill="#D9D9D9"/>
<path d="M304.616 313.584C304.264 313.584 304.088 313.504 304.088 313.344C304.088 313.344 304.2 312.832 304.424 311.808C304.68 310.784 304.92 309.264 305.144 307.248C305.4 305.232 305.528 302.768 305.528 299.856C305.528 299.6 305.512 299.344 305.48 299.088C305.48 298.832 305.48 298.576 305.48 298.32C305.096 298.256 304.712 298.192 304.328 298.128C303.976 298.032 303.624 297.936 303.272 297.84C303.048 297.744 302.84 297.408 302.648 296.832C302.456 296.224 302.344 295.792 302.312 295.536C302.312 295.376 302.328 295.296 302.36 295.296C302.424 295.264 302.456 295.248 302.456 295.248C302.968 295.344 303.464 295.424 303.944 295.488C304.424 295.52 304.92 295.552 305.432 295.584C305.304 293.216 305.112 291.056 304.856 289.104C304.6 287.12 304.376 285.52 304.184 284.304C303.832 284.24 303.48 284.16 303.128 284.064C302.808 283.968 302.472 283.872 302.12 283.776C301.8 283.552 301.56 283.216 301.4 282.768C301.24 282.32 301.16 282.016 301.16 281.856C301.16 281.696 301.192 281.616 301.256 281.616C301.704 281.648 302.136 281.68 302.552 281.712C303 281.744 303.448 281.776 303.896 281.808L307.256 279.504L308.504 280.272C308.568 280.56 308.616 280.848 308.648 281.136C308.68 281.392 308.712 281.664 308.744 281.952C310.76 281.888 312.76 281.696 314.744 281.376C316.76 281.024 318.648 280.4 320.408 279.504L321.224 280.752L319.64 284.88C317.4 285.168 315.24 285.312 313.16 285.312C312.456 285.312 311.768 285.296 311.096 285.264C310.424 285.232 309.752 285.184 309.08 285.12C309.176 286.752 309.224 288.384 309.224 290.016C309.224 290.944 309.208 291.872 309.176 292.8C309.144 293.728 309.096 294.656 309.032 295.584C310.824 295.488 312.376 295.28 313.688 294.96C315.032 294.64 316.168 294.304 317.096 293.952L317.528 294.768L316.04 298.08C315.112 298.208 314.152 298.336 313.16 298.464C312.168 298.592 311.192 298.656 310.232 298.656C310.008 298.656 309.768 298.656 309.512 298.656C309.288 298.656 309.048 298.64 308.792 298.608C308.568 301.04 308.28 303.44 307.928 305.808C307.608 308.176 307.272 310.464 306.92 312.672C306.696 312.96 306.312 313.184 305.768 313.344C305.256 313.504 304.872 313.584 304.616 313.584ZM323.99 313.344C323.734 313.344 323.606 313.28 323.606 313.152C324.086 310.24 324.39 307.552 324.518 305.088C324.678 302.592 324.758 300.064 324.758 297.504C324.758 294.656 324.662 291.728 324.47 288.72C324.31 285.712 324.054 282.928 323.702 280.368L324.95 279.504L329.222 281.712C329.126 283.568 328.998 285.712 328.838 288.144C328.71 290.576 328.534 293.088 328.31 295.68C328.086 298.272 327.846 300.8 327.59 303.264C327.334 305.696 327.046 307.856 326.726 309.744C326.982 309.744 327.238 309.76 327.494 309.792C327.782 309.792 328.054 309.792 328.31 309.792C330.294 309.792 332.262 309.632 334.214 309.312C336.166 308.96 338.07 308.288 339.926 307.296L340.742 308.544L339.158 312.672C338.262 312.768 337.398 312.832 336.566 312.864C335.734 312.896 334.902 312.912 334.07 312.912C332.758 312.912 331.462 312.832 330.182 312.672C328.902 312.544 327.622 312.32 326.342 312L326.198 312.576C326.006 312.8 325.654 312.976 325.142 313.104C324.63 313.264 324.246 313.344 323.99 313.344ZM353.168 313.632C351.056 313.632 349.104 313.088 347.312 312C345.552 310.88 344.128 309.264 343.04 307.152C341.984 305.04 341.456 302.448 341.456 299.376C341.456 297.36 341.776 295.28 342.416 293.136C343.088 290.992 344.192 288.976 345.728 287.088C347.264 285.168 349.312 283.536 351.872 282.192C354.464 280.848 357.68 279.968 361.52 279.552L362.336 280.752L360.944 283.536C361.968 284.4 362.896 285.568 363.728 287.04C364.56 288.48 365.216 290.112 365.696 291.936C366.208 293.728 366.464 295.6 366.464 297.552C366.464 299.472 366.224 301.392 365.744 303.312C365.264 305.2 364.496 306.928 363.44 308.496C362.416 310.064 361.056 311.312 359.36 312.24C357.664 313.168 355.6 313.632 353.168 313.632ZM354.368 309.648C356.384 309.584 358.064 309.04 359.408 308.016C360.752 306.992 361.744 305.648 362.384 303.984C363.056 302.32 363.392 300.496 363.392 298.512C363.392 297.04 363.2 295.408 362.816 293.616C362.432 291.824 361.84 290.08 361.04 288.384C360.272 286.656 359.296 285.2 358.112 284.016C353.92 284.624 350.864 286.176 348.944 288.672C347.024 291.168 346.064 294.288 346.064 298.032C346.064 300.464 346.448 302.56 347.216 304.32C348.016 306.048 349.04 307.376 350.288 308.304C351.568 309.2 352.928 309.648 354.368 309.648ZM381.058 313.632C378.946 313.632 376.994 313.088 375.202 312C373.442 310.88 372.018 309.264 370.93 307.152C369.874 305.04 369.346 302.448 369.346 299.376C369.346 297.36 369.666 295.28 370.306 293.136C370.978 290.992 372.082 288.976 373.618 287.088C375.154 285.168 377.202 283.536 379.762 282.192C382.354 280.848 385.57 279.968 389.41 279.552L390.226 280.752L388.834 283.536C389.858 284.4 390.786 285.568 391.618 287.04C392.45 288.48 393.106 290.112 393.586 291.936C394.098 293.728 394.354 295.6 394.354 297.552C394.354 299.472 394.114 301.392 393.634 303.312C393.154 305.2 392.386 306.928 391.33 308.496C390.306 310.064 388.946 311.312 387.25 312.24C385.554 313.168 383.49 313.632 381.058 313.632ZM382.258 309.648C384.274 309.584 385.954 309.04 387.298 308.016C388.642 306.992 389.634 305.648 390.274 303.984C390.946 302.32 391.282 300.496 391.282 298.512C391.282 297.04 391.09 295.408 390.706 293.616C390.322 291.824 389.73 290.08 388.93 288.384C388.162 286.656 387.186 285.2 386.002 284.016C381.81 284.624 378.754 286.176 376.834 288.672C374.914 291.168 373.954 294.288 373.954 298.032C373.954 300.464 374.338 302.56 375.106 304.32C375.906 306.048 376.93 307.376 378.178 308.304C379.458 309.2 380.818 309.648 382.258 309.648ZM402.229 313.632C401.941 313.632 401.797 313.584 401.797 313.488C401.957 312.112 402.101 310.304 402.229 308.064C402.389 305.792 402.469 303.36 402.469 300.768C401.925 300.768 401.365 300.768 400.789 300.768C400.245 300.768 399.733 300.752 399.253 300.72C398.933 300.432 398.709 300.096 398.581 299.712C398.485 299.296 398.437 298.992 398.437 298.8C398.437 298.544 398.485 298.416 398.581 298.416C399.093 298.512 399.637 298.576 400.213 298.608C400.789 298.608 401.525 298.608 402.421 298.608C402.389 296.432 402.245 294.288 401.989 292.176C401.733 290.032 401.333 288.096 400.789 286.368C400.245 284.608 399.525 283.2 398.629 282.144L400.885 278.928C402.645 280.08 404.389 281.056 406.117 281.856C407.877 282.624 409.525 283.328 411.061 283.968C412.629 284.608 414.005 285.28 415.189 285.984C416.405 286.656 417.349 287.44 418.021 288.336C418.725 289.2 419.077 290.288 419.077 291.6C419.077 292.848 418.661 294.16 417.829 295.536C416.997 296.88 415.493 298.016 413.317 298.944C414.053 300.576 414.869 302.272 415.765 304.032C416.693 305.792 417.621 307.456 418.549 309.024C419.509 310.592 420.373 311.888 421.141 312.912C421.141 313.072 420.965 313.2 420.613 313.296C420.293 313.424 419.941 313.488 419.557 313.488C419.461 313.488 419.365 313.488 419.269 313.488C419.173 313.488 419.077 313.472 418.981 313.44C418.117 312.576 417.157 311.44 416.101 310.032C415.077 308.592 414.021 307.008 412.933 305.28C411.845 303.552 410.789 301.808 409.765 300.048C409.125 300.176 408.437 300.304 407.701 300.432C406.997 300.528 406.245 300.608 405.445 300.672C405.317 302.752 405.125 304.832 404.869 306.912C404.613 308.96 404.357 310.96 404.101 312.912C403.877 313.136 403.557 313.312 403.141 313.44C402.757 313.568 402.453 313.632 402.229 313.632ZM405.541 298.368C408.549 297.952 410.741 297.152 412.117 295.968C413.525 294.752 414.229 293.44 414.229 292.032C414.229 290.72 413.813 289.632 412.981 288.768C412.149 287.872 411.029 287.088 409.621 286.416C408.213 285.712 406.629 285.008 404.869 284.304C405.189 286.064 405.397 287.744 405.493 289.344C405.621 290.944 405.685 292.592 405.685 294.288C405.685 295.6 405.637 296.96 405.541 298.368ZM454.529 313.68L449.969 311.712C449.457 307.136 448.689 302.704 447.665 298.416C446.641 294.128 445.537 290.096 444.353 286.32C444.225 288.528 444.049 290.896 443.825 293.424C443.601 295.92 443.329 298.384 443.009 300.816C442.721 303.248 442.417 305.488 442.097 307.536C441.777 309.552 441.457 311.184 441.137 312.432C440.849 312.72 440.449 312.944 439.937 313.104C439.425 313.264 439.041 313.344 438.785 313.344C438.561 313.344 438.417 313.328 438.353 313.296C438.289 313.264 438.257 313.216 438.257 313.152C438.225 313.152 438.321 312.576 438.545 311.424C438.801 310.24 439.057 308.512 439.313 306.24C439.569 303.936 439.697 301.104 439.697 297.744C439.697 295.568 439.633 293.504 439.505 291.552C439.377 289.568 439.217 287.824 439.025 286.32C438.833 284.816 438.673 283.632 438.545 282.768C438.417 281.904 438.353 281.472 438.353 281.472L443.297 279.504L444.545 280.272C446.177 283.952 447.681 287.712 449.057 291.552C450.433 295.392 451.713 299.296 452.897 303.264C454.273 299.584 455.825 295.92 457.553 292.272C459.281 288.592 461.217 284.64 463.361 280.416C463.361 280.384 463.361 280.368 463.361 280.368C463.393 280.336 463.409 280.304 463.409 280.272L464.657 279.504L468.737 281.472C467.873 283.68 467.281 286.272 466.961 289.248C466.673 292.224 466.529 295.44 466.529 298.896C466.529 301.84 466.593 304.624 466.721 307.248C466.881 309.84 467.057 311.92 467.249 313.488C467.249 313.584 467.121 313.632 466.865 313.632C466.641 313.632 466.321 313.568 465.905 313.44C465.489 313.312 465.185 313.136 464.993 312.912C464.257 309.136 463.649 305.456 463.169 301.872C462.721 298.288 462.497 294.752 462.497 291.264C462.497 289.696 462.545 288.144 462.641 286.608C461.329 289.648 460.193 292.496 459.233 295.152C458.305 297.776 457.489 300.352 456.785 302.88C456.113 305.408 455.521 308.032 455.009 310.752L455.585 312.912L454.529 313.68ZM470.549 313.632C470.517 313.632 470.421 313.616 470.261 313.584C470.069 313.584 469.973 313.552 469.973 313.488C470.613 312.24 471.349 310.688 472.181 308.832C473.013 306.944 473.877 304.928 474.773 302.784C474.485 302.72 474.181 302.656 473.861 302.592C473.573 302.528 473.269 302.464 472.949 302.4C472.725 302.144 472.549 301.776 472.421 301.296C472.293 300.784 472.229 300.448 472.229 300.288C472.229 300.064 472.277 299.952 472.373 299.952C472.565 299.952 472.917 300.032 473.429 300.192C473.973 300.352 474.709 300.48 475.637 300.576C476.501 298.464 477.333 296.32 478.133 294.144C478.965 291.936 479.717 289.824 480.389 287.808C481.061 285.76 481.605 283.92 482.021 282.288L487.301 279.504C487.557 279.504 487.909 279.584 488.357 279.744C488.805 279.872 489.157 280.096 489.413 280.416C489.317 281.248 489.253 282.112 489.221 283.008C489.189 283.872 489.173 284.736 489.173 285.6C489.173 288.224 489.317 290.864 489.605 293.52C489.893 296.144 490.261 298.688 490.709 301.152C491.157 303.584 491.621 305.856 492.101 307.968C492.613 310.08 493.077 311.92 493.493 313.488C493.493 313.584 493.365 313.632 493.109 313.632C492.629 313.632 492.245 313.568 491.957 313.44C491.669 313.312 491.429 313.136 491.237 312.912C490.725 311.792 490.149 310.336 489.509 308.544C488.901 306.752 488.293 304.816 487.685 302.736C485.509 303.088 483.301 303.264 481.061 303.264C480.453 303.264 479.877 303.264 479.333 303.264C478.789 303.232 478.245 303.2 477.701 303.168C476.965 304.704 476.181 306.272 475.349 307.872C474.517 309.472 473.621 311.152 472.661 312.912C472.405 313.136 472.101 313.312 471.749 313.44C471.397 313.568 470.997 313.632 470.549 313.632ZM478.853 300.72C480.133 300.688 481.461 300.592 482.837 300.432C484.213 300.272 485.557 300 486.869 299.616C486.293 297.44 485.781 295.248 485.333 293.04C484.885 290.832 484.565 288.8 484.373 286.944C483.445 289.504 482.533 291.904 481.637 294.144C480.741 296.352 479.813 298.544 478.853 300.72ZM501.411 313.344C500.515 313.344 499.651 313.296 498.819 313.2C498.019 313.136 496.995 312.912 495.747 312.528C495.587 312.272 495.459 311.968 495.363 311.616C495.267 311.232 495.219 310.96 495.219 310.8C495.219 310.576 495.235 310.464 495.267 310.464C495.491 310.464 495.971 310.592 496.707 310.848C497.475 311.072 498.547 311.184 499.923 311.184C502.643 311.184 504.835 310.64 506.499 309.552C508.163 308.464 508.995 307.072 508.995 305.376C508.995 304.224 508.595 303.152 507.795 302.16C507.027 301.136 506.051 300.16 504.867 299.232C503.715 298.304 502.547 297.36 501.363 296.4C500.211 295.44 499.235 294.432 498.435 293.376C497.667 292.32 497.283 291.168 497.283 289.92C497.283 289.28 497.475 288.512 497.859 287.616C498.243 286.72 498.995 285.792 500.115 284.832C501.267 283.872 502.947 282.976 505.155 282.144C507.363 281.312 510.307 280.64 513.987 280.128L514.803 281.376L513.219 285.504C511.651 284.672 509.843 284.256 507.795 284.256C506.803 284.256 505.859 284.384 504.963 284.64C504.067 284.896 503.331 285.328 502.755 285.936C502.179 286.544 501.891 287.376 501.891 288.432C501.891 289.36 502.195 290.24 502.803 291.072C503.411 291.872 504.179 292.672 505.107 293.472C506.067 294.24 507.075 295.024 508.131 295.824C509.187 296.624 510.179 297.472 511.107 298.368C512.067 299.232 512.851 300.176 513.459 301.2C514.067 302.224 514.371 303.344 514.371 304.56C514.371 305.328 514.195 306.224 513.843 307.248C513.491 308.24 512.851 309.2 511.923 310.128C510.995 311.056 509.683 311.824 507.987 312.432C506.291 313.04 504.099 313.344 501.411 313.344ZM525.434 313.584C525.21 313.584 525.098 313.536 525.098 313.44C525.514 310.976 525.786 308.592 525.914 306.288C526.074 303.984 526.154 301.776 526.154 299.664C526.154 298.704 526.122 297.424 526.058 295.824C526.026 294.224 525.962 292.56 525.866 290.832C525.802 289.072 525.706 287.472 525.578 286.032C525.162 286.064 524.746 286.08 524.33 286.08C523.946 286.08 523.546 286.08 523.13 286.08C521.434 286.08 519.722 285.936 517.994 285.648L517.226 284.4L519.05 280.272C520.202 280.88 521.514 281.312 522.986 281.568C524.458 281.792 526.058 281.904 527.786 281.904C529.834 281.904 531.802 281.76 533.69 281.472C535.578 281.184 537.098 280.896 538.25 280.608C538.378 280.608 538.442 280.752 538.442 281.04C538.442 281.264 538.378 281.584 538.25 282C538.122 282.384 537.946 282.672 537.722 282.864C536.474 283.376 535.242 283.84 534.026 284.256C532.81 284.672 531.594 285.024 530.378 285.312C530.282 287.232 530.154 289.44 529.994 291.936C529.866 294.4 529.674 296.944 529.418 299.568C529.194 302.16 528.922 304.624 528.602 306.96C528.282 309.296 527.914 311.28 527.498 312.912C527.274 313.136 526.938 313.296 526.49 313.392C526.042 313.52 525.69 313.584 525.434 313.584ZM551.883 313.584C550.251 313.584 548.875 313.152 547.755 312.288C546.667 311.424 545.803 310.24 545.163 308.736C544.523 307.232 544.059 305.536 543.771 303.648C543.483 301.728 543.323 299.728 543.291 297.648L542.331 297.456C542.011 297.36 541.723 297.024 541.467 296.448C541.211 295.84 541.067 295.408 541.035 295.152C541.035 294.992 541.067 294.912 541.131 294.912C541.195 294.88 541.243 294.864 541.275 294.864C541.627 294.896 541.979 294.944 542.331 295.008C542.683 295.04 543.019 295.072 543.339 295.104C543.371 294.208 543.419 293.088 543.483 291.744C543.579 290.368 543.675 288.992 543.771 287.616C543.899 286.208 544.043 285.024 544.203 284.064C544.011 284 543.819 283.952 543.627 283.92C543.435 283.888 543.243 283.84 543.051 283.776C542.731 283.552 542.491 283.216 542.331 282.768C542.171 282.32 542.091 282.016 542.091 281.856C542.091 281.696 542.123 281.616 542.187 281.616L545.595 281.904L549.099 279.504L550.347 280.272L549.771 281.952C551.851 281.92 553.915 281.728 555.963 281.376C558.011 281.024 559.931 280.4 561.723 279.504L562.539 280.752L560.955 284.88C558.715 285.168 556.523 285.312 554.379 285.312C553.483 285.312 552.587 285.296 551.691 285.264C550.827 285.2 549.947 285.104 549.051 284.976C548.731 286.416 548.411 288.032 548.091 289.824C547.803 291.584 547.579 293.392 547.419 295.248H548.523C550.699 295.248 552.555 295.072 554.091 294.72C555.659 294.368 556.955 293.984 557.979 293.568L558.411 294.384L556.971 297.696C556.075 297.856 555.083 297.984 553.995 298.08C552.939 298.176 551.947 298.224 551.019 298.224C549.739 298.224 548.475 298.176 547.227 298.08C547.195 298.4 547.179 298.72 547.179 299.04C547.179 299.36 547.179 299.68 547.179 300C547.179 301.952 547.371 303.76 547.755 305.424C548.139 307.056 548.715 308.368 549.483 309.36C550.283 310.32 551.291 310.8 552.507 310.8C554.523 310.8 556.091 310.096 557.211 308.688C558.331 307.248 559.291 305.072 560.091 302.16C560.155 301.904 560.267 301.776 560.427 301.776C560.587 301.776 560.795 301.824 561.051 301.92C561.339 302.016 561.627 302.192 561.915 302.448C561.499 304.528 560.875 306.416 560.043 308.112C559.243 309.808 558.171 311.136 556.827 312.096C555.515 313.088 553.867 313.584 551.883 313.584ZM570.651 313.632C570.363 313.632 570.219 313.584 570.219 313.488C570.379 312.112 570.523 310.304 570.651 308.064C570.811 305.792 570.891 303.36 570.891 300.768C570.347 300.768 569.787 300.768 569.211 300.768C568.667 300.768 568.155 300.752 567.675 300.72C567.355 300.432 567.131 300.096 567.003 299.712C566.907 299.296 566.859 298.992 566.859 298.8C566.859 298.544 566.907 298.416 567.003 298.416C567.515 298.512 568.059 298.576 568.635 298.608C569.211 298.608 569.947 298.608 570.843 298.608C570.811 296.432 570.667 294.288 570.411 292.176C570.155 290.032 569.755 288.096 569.211 286.368C568.667 284.608 567.947 283.2 567.051 282.144L569.307 278.928C571.067 280.08 572.811 281.056 574.539 281.856C576.299 282.624 577.947 283.328 579.483 283.968C581.051 284.608 582.427 285.28 583.611 285.984C584.827 286.656 585.771 287.44 586.443 288.336C587.147 289.2 587.499 290.288 587.499 291.6C587.499 292.848 587.083 294.16 586.251 295.536C585.419 296.88 583.915 298.016 581.739 298.944C582.475 300.576 583.291 302.272 584.187 304.032C585.115 305.792 586.043 307.456 586.971 309.024C587.931 310.592 588.795 311.888 589.563 312.912C589.563 313.072 589.387 313.2 589.035 313.296C588.715 313.424 588.363 313.488 587.979 313.488C587.883 313.488 587.787 313.488 587.691 313.488C587.595 313.488 587.499 313.472 587.403 313.44C586.539 312.576 585.579 311.44 584.523 310.032C583.499 308.592 582.443 307.008 581.355 305.28C580.267 303.552 579.211 301.808 578.187 300.048C577.547 300.176 576.859 300.304 576.123 300.432C575.419 300.528 574.667 300.608 573.867 300.672C573.739 302.752 573.547 304.832 573.291 306.912C573.035 308.96 572.779 310.96 572.523 312.912C572.299 313.136 571.979 313.312 571.563 313.44C571.179 313.568 570.875 313.632 570.651 313.632ZM573.963 298.368C576.971 297.952 579.163 297.152 580.539 295.968C581.947 294.752 582.651 293.44 582.651 292.032C582.651 290.72 582.235 289.632 581.403 288.768C580.571 287.872 579.451 287.088 578.043 286.416C576.635 285.712 575.051 285.008 573.291 284.304C573.611 286.064 573.819 287.744 573.915 289.344C574.043 290.944 574.107 292.592 574.107 294.288C574.107 295.6 574.059 296.96 573.963 298.368ZM595.77 313.344C594.874 313.344 594.01 313.296 593.178 313.2C592.378 313.136 591.354 312.912 590.106 312.528C589.946 312.272 589.818 311.968 589.722 311.616C589.626 311.232 589.578 310.96 589.578 310.8C589.578 310.576 589.594 310.464 589.626 310.464C589.85 310.464 590.33 310.592 591.066 310.848C591.834 311.072 592.906 311.184 594.282 311.184C597.002 311.184 599.194 310.64 600.858 309.552C602.522 308.464 603.354 307.072 603.354 305.376C603.354 304.224 602.954 303.152 602.154 302.16C601.386 301.136 600.41 300.16 599.226 299.232C598.074 298.304 596.906 297.36 595.722 296.4C594.57 295.44 593.594 294.432 592.794 293.376C592.026 292.32 591.642 291.168 591.642 289.92C591.642 289.28 591.834 288.512 592.218 287.616C592.602 286.72 593.354 285.792 594.474 284.832C595.626 283.872 597.306 282.976 599.514 282.144C601.722 281.312 604.666 280.64 608.346 280.128L609.162 281.376L607.578 285.504C606.01 284.672 604.202 284.256 602.154 284.256C601.162 284.256 600.218 284.384 599.322 284.64C598.426 284.896 597.69 285.328 597.114 285.936C596.538 286.544 596.25 287.376 596.25 288.432C596.25 289.36 596.554 290.24 597.162 291.072C597.77 291.872 598.538 292.672 599.466 293.472C600.426 294.24 601.434 295.024 602.49 295.824C603.546 296.624 604.538 297.472 605.466 298.368C606.426 299.232 607.21 300.176 607.818 301.2C608.426 302.224 608.73 303.344 608.73 304.56C608.73 305.328 608.554 306.224 608.202 307.248C607.85 308.24 607.21 309.2 606.282 310.128C605.354 311.056 604.042 311.824 602.346 312.432C600.65 313.04 598.458 313.344 595.77 313.344Z" fill="black"/>
</svg>
