<svg width="412" height="372" viewBox="0 0 412 372" fill="none" xmlns="http://www.w3.org/2000/svg">
<g clip-path="url(#clip0_0_1)">
<rect width="412" height="372" fill="white"/>
<rect width="174" height="179" transform="translate(220 195)" fill="#AB8628" fill-opacity="0.71"/>
<rect x="264" y="247" width="87" height="82" fill="#F9DF9E" fill-opacity="0.71"/>
<rect x="46" y="195" width="174" height="179" fill="#AB8628" fill-opacity="0.71"/>
<rect x="43" y="203.851" width="256.815" height="34.8823" transform="rotate(-48 43 203.851)" fill="#C8A343" fill-opacity="0.71"/>
<rect x="93" y="202.878" width="220.519" height="34.8823" transform="rotate(-48 93 202.878)" fill="#F1D180" fill-opacity="0.71"/>
<path d="M340.858 246.672L217.593 123.407L242.495 98.5054L365.759 221.77L340.858 246.672Z" fill="#C8A343" fill-opacity="0.71"/>
<rect x="364.129" y="209.867" width="166.167" height="33.5706" transform="rotate(-135 364.129 209.867)" fill="#F1D180" fill-opacity="0.71"/>
<rect x="90" y="244" width="89" height="83" fill="#F9DF9E" fill-opacity="0.71"/>
<path d="M27 181H403V266H27V181Z" fill="#D9D9D9"/>
<path d="M41.16 240.12C40.4133 240.12 39.6933 240.08 39 240C38.3333 239.947 37.48 239.76 36.44 239.44C36.3067 239.227 36.2 238.973 36.12 238.68C36.04 238.36 36 238.133 36 238C36 237.813 36.0133 237.72 36.04 237.72C36.2267 237.72 36.6267 237.827 37.24 238.04C37.88 238.227 38.7733 238.32 39.92 238.32C42.1867 238.32 44.0133 237.867 45.4 236.96C46.7867 236.053 47.48 234.893 47.48 233.48C47.48 232.52 47.1467 231.627 46.48 230.8C45.84 229.947 45.0267 229.133 44.04 228.36C43.08 227.587 42.1067 226.8 41.12 226C40.16 225.2 39.3467 224.36 38.68 223.48C38.04 222.6 37.72 221.64 37.72 220.6C37.72 220.067 37.88 219.427 38.2 218.68C38.52 217.933 39.1467 217.16 40.08 216.36C41.04 215.56 42.44 214.813 44.28 214.12C46.12 213.427 48.5733 212.867 51.64 212.44L52.32 213.48L51 216.92C49.6933 216.227 48.1867 215.88 46.48 215.88C45.6533 215.88 44.8667 215.987 44.12 216.2C43.3733 216.413 42.76 216.773 42.28 217.28C41.8 217.787 41.56 218.48 41.56 219.36C41.56 220.133 41.8133 220.867 42.32 221.56C42.8267 222.227 43.4667 222.893 44.24 223.56C45.04 224.2 45.88 224.853 46.76 225.52C47.64 226.187 48.4667 226.893 49.24 227.64C50.04 228.36 50.6933 229.147 51.2 230C51.7067 230.853 51.96 231.787 51.96 232.8C51.96 233.44 51.8133 234.187 51.52 235.04C51.2267 235.867 50.6933 236.667 49.92 237.44C49.1467 238.213 48.0533 238.853 46.64 239.36C45.2267 239.867 43.4 240.12 41.16 240.12ZM74.4191 240.36C74.2324 240.36 73.9657 240.307 73.6191 240.2C73.2724 240.093 73.0191 239.947 72.8591 239.76C72.4324 237.627 72.0591 235.533 71.7391 233.48C71.4191 231.4 71.1791 229.347 71.0191 227.32C69.7124 227.587 68.3791 227.813 67.0191 228C65.6857 228.16 64.3524 228.24 63.0191 228.24C62.8057 228.24 62.5791 228.24 62.3391 228.24C62.1257 228.24 61.9124 228.227 61.6991 228.2C61.5124 230.147 61.2724 232.08 60.9791 234C60.7124 235.92 60.4324 237.773 60.1391 239.56C59.9524 239.8 59.6324 239.987 59.1791 240.12C58.7524 240.253 58.4324 240.32 58.2191 240.32C57.9257 240.32 57.7791 240.253 57.7791 240.12C57.7791 240.12 57.8724 239.693 58.0591 238.84C58.2724 237.987 58.4724 236.72 58.6591 235.04C58.8724 233.36 58.9791 231.307 58.9791 228.88C58.9791 228.747 58.9657 228.6 58.9391 228.44C58.9391 228.28 58.9391 228.12 58.9391 227.96C58.2991 227.88 57.4991 227.72 56.5391 227.48C56.3524 227.293 56.2057 227.013 56.0991 226.64C55.9924 226.267 55.9391 226 55.9391 225.84C55.9391 225.6 55.9924 225.48 56.0991 225.48C56.2591 225.48 56.5524 225.547 56.9791 225.68C57.4324 225.813 58.0724 225.92 58.8991 226C58.7924 224.293 58.6324 222.693 58.4191 221.2C58.2057 219.707 57.9791 218.387 57.7391 217.24C57.5257 216.093 57.3391 215.2 57.1791 214.56C57.0191 213.893 56.9391 213.56 56.9391 213.56L60.4191 211.92L61.4591 212.56C61.6724 213.867 61.8191 215.2 61.8991 216.56C62.0057 217.92 62.0591 219.293 62.0591 220.68C62.0591 221.587 62.0324 222.493 61.9791 223.4C61.9524 224.28 61.9124 225.173 61.8591 226.08C63.3257 226.027 64.8457 225.867 66.4191 225.6C67.9924 225.307 69.4591 224.853 70.8191 224.24C70.7924 223.813 70.7791 223.4 70.7791 223C70.7791 222.573 70.7791 222.147 70.7791 221.72C70.7791 220.173 70.8457 218.653 70.9791 217.16C71.1124 215.64 71.2991 214.107 71.5391 212.56L72.5791 211.92L75.9791 213.56C75.2591 215.4 74.7657 217.56 74.4991 220.04C74.2591 222.52 74.1391 225.2 74.1391 228.08C74.1391 230.533 74.1924 232.853 74.2991 235.04C74.4324 237.2 74.5791 238.933 74.7391 240.24C74.7391 240.32 74.6324 240.36 74.4191 240.36ZM98.9522 240.32C98.3655 240.32 97.9255 240.253 97.6322 240.12C97.3655 240.013 97.1655 239.907 97.0322 239.8C96.3122 239.133 95.5922 238.44 94.8722 237.72C94.1522 236.973 93.4322 236.213 92.7122 235.44C91.6455 236.8 90.4455 237.88 89.1122 238.68C87.7789 239.48 86.3922 239.88 84.9522 239.88C83.6455 239.88 82.5522 239.6 81.6722 239.04C80.7922 238.48 80.1255 237.733 79.6722 236.8C79.2189 235.84 78.9922 234.787 78.9922 233.64C78.9922 232.04 79.4455 230.373 80.3522 228.64C81.2589 226.88 82.6589 225.347 84.5522 224.04C84.2589 223.347 84.0189 222.68 83.8322 222.04C83.6722 221.373 83.5922 220.747 83.5922 220.16C83.5922 219.36 83.7389 218.573 84.0322 217.8C84.3255 217 84.9255 216.253 85.8322 215.56C86.7389 214.84 88.0722 214.213 89.8322 213.68C91.6189 213.12 93.9922 212.707 96.9522 212.44L97.5922 213.48L96.3122 216.92C94.7389 215.96 93.2189 215.48 91.7522 215.48C90.6055 215.48 89.6455 215.827 88.8722 216.52C88.0989 217.187 87.7122 218.267 87.7122 219.76C87.7122 221.44 88.1789 223.267 89.1122 225.24C90.0455 227.187 91.2455 229.227 92.7122 231.36C93.2455 230.48 93.7255 229.533 94.1522 228.52C94.6055 227.48 94.9922 226.427 95.3122 225.36C95.3655 225.147 95.4589 225.04 95.5922 225.04C95.7255 225.04 95.8989 225.08 96.1122 225.16C96.3522 225.24 96.5922 225.387 96.8322 225.6C96.3789 228.453 95.4855 231.04 94.1522 233.36C94.9522 234.427 95.7789 235.52 96.6322 236.64C97.5122 237.733 98.4055 238.84 99.3122 239.96C99.3122 240.2 99.1922 240.32 98.9522 240.32ZM86.3122 236.32C87.1655 236.32 87.9922 236.08 88.7922 235.6C89.5922 235.12 90.3522 234.467 91.0722 233.64C90.0055 232.387 88.9922 231.12 88.0322 229.84C87.0722 228.56 86.2455 227.307 85.5522 226.08C84.6455 226.907 83.9655 227.853 83.5122 228.92C83.0855 229.987 82.8722 231 82.8722 231.96C82.8722 233.053 83.1522 234.053 83.7122 234.96C84.2989 235.867 85.1655 236.32 86.3122 236.32ZM120.2 240.36C120.014 240.36 119.747 240.307 119.4 240.2C119.054 240.093 118.8 239.947 118.64 239.76C118.214 237.627 117.84 235.533 117.52 233.48C117.2 231.4 116.96 229.347 116.8 227.32C115.494 227.587 114.16 227.813 112.8 228C111.467 228.16 110.134 228.24 108.8 228.24C108.587 228.24 108.36 228.24 108.12 228.24C107.907 228.24 107.694 228.227 107.48 228.2C107.294 230.147 107.054 232.08 106.76 234C106.494 235.92 106.214 237.773 105.92 239.56C105.734 239.8 105.414 239.987 104.96 240.12C104.534 240.253 104.214 240.32 104 240.32C103.707 240.32 103.56 240.253 103.56 240.12C103.56 240.12 103.654 239.693 103.84 238.84C104.054 237.987 104.254 236.72 104.44 235.04C104.654 233.36 104.76 231.307 104.76 228.88C104.76 228.747 104.747 228.6 104.72 228.44C104.72 228.28 104.72 228.12 104.72 227.96C104.08 227.88 103.28 227.72 102.32 227.48C102.134 227.293 101.987 227.013 101.88 226.64C101.774 226.267 101.72 226 101.72 225.84C101.72 225.6 101.774 225.48 101.88 225.48C102.04 225.48 102.334 225.547 102.76 225.68C103.214 225.813 103.854 225.92 104.68 226C104.574 224.293 104.414 222.693 104.2 221.2C103.987 219.707 103.76 218.387 103.52 217.24C103.307 216.093 103.12 215.2 102.96 214.56C102.8 213.893 102.72 213.56 102.72 213.56L106.2 211.92L107.24 212.56C107.454 213.867 107.6 215.2 107.68 216.56C107.787 217.92 107.84 219.293 107.84 220.68C107.84 221.587 107.814 222.493 107.76 223.4C107.734 224.28 107.694 225.173 107.64 226.08C109.107 226.027 110.627 225.867 112.2 225.6C113.774 225.307 115.24 224.853 116.6 224.24C116.574 223.813 116.56 223.4 116.56 223C116.56 222.573 116.56 222.147 116.56 221.72C116.56 220.173 116.627 218.653 116.76 217.16C116.894 215.64 117.08 214.107 117.32 212.56L118.36 211.92L121.76 213.56C121.04 215.4 120.547 217.56 120.28 220.04C120.04 222.52 119.92 225.2 119.92 228.08C119.92 230.533 119.974 232.853 120.08 235.04C120.214 237.2 120.36 238.933 120.52 240.24C120.52 240.32 120.414 240.36 120.2 240.36ZM144.304 240.28C142.598 240.28 141.131 239.8 139.904 238.84C138.704 237.88 137.784 236.547 137.144 234.84C136.504 233.107 136.184 231.133 136.184 228.92C136.184 227.267 136.464 225.56 137.024 223.8C137.611 222.013 138.544 220.307 139.824 218.68C141.104 217.053 142.811 215.64 144.944 214.44C147.078 213.24 149.704 212.4 152.824 211.92L153.504 212.96L152.184 216.4C151.758 216.347 151.344 216.307 150.944 216.28C150.571 216.253 150.198 216.24 149.824 216.24C147.851 216.24 146.211 216.573 144.904 217.24C143.598 217.88 142.571 218.733 141.824 219.8C141.078 220.84 140.544 221.973 140.224 223.2C139.904 224.427 139.744 225.6 139.744 226.72C139.744 229.04 139.984 230.947 140.464 232.44C140.971 233.933 141.624 235.04 142.424 235.76C143.224 236.453 144.051 236.8 144.904 236.8C146.771 236.8 148.304 236.067 149.504 234.6C150.731 233.107 151.758 230.907 152.584 228C152.638 227.787 152.731 227.68 152.864 227.68C152.998 227.68 153.171 227.72 153.384 227.8C153.624 227.88 153.864 228.027 154.104 228.24C153.731 230.773 153.024 232.947 151.984 234.76C150.971 236.547 149.784 237.92 148.424 238.88C147.064 239.813 145.691 240.28 144.304 240.28ZM170.836 240.12C170.649 240.12 170.396 240.067 170.076 239.96C169.756 239.853 169.516 239.72 169.356 239.56C168.876 238.467 168.462 237.133 168.116 235.56C167.796 233.96 167.529 232.387 167.316 230.84C166.569 232.6 165.716 234.16 164.756 235.52C163.796 236.88 162.809 237.947 161.796 238.72C160.809 239.493 159.849 239.88 158.916 239.88C157.716 239.88 156.836 239.453 156.276 238.6C155.742 237.747 155.476 236.667 155.476 235.36C155.476 233.547 155.822 231.88 156.516 230.36C157.209 228.813 158.129 227.427 159.276 226.2C160.449 224.947 161.716 223.867 163.076 222.96C164.462 222.027 165.836 221.267 167.196 220.68L170.436 219.28L171.396 219.84C170.996 221.013 170.676 222.427 170.436 224.08C170.196 225.733 170.076 227.307 170.076 228.8C170.076 229.52 170.102 230.413 170.156 231.48C170.236 232.547 170.329 233.653 170.436 234.8C170.542 235.92 170.649 236.96 170.756 237.92C170.889 238.853 171.009 239.547 171.116 240C171.116 240.08 171.022 240.12 170.836 240.12ZM161.236 235.08C162.036 235.08 162.969 234.427 164.036 233.12C165.102 231.813 166.062 229.84 166.916 227.2C166.889 226.907 166.876 226.64 166.876 226.4C166.876 226.133 166.876 225.893 166.876 225.68C166.876 225.013 166.876 224.44 166.876 223.96C166.876 223.48 166.889 223.053 166.916 222.68C165.689 223.373 164.489 224.173 163.316 225.08C162.142 225.96 161.169 226.987 160.396 228.16C159.622 229.307 159.236 230.627 159.236 232.12C159.236 232.973 159.369 233.68 159.636 234.24C159.929 234.8 160.462 235.08 161.236 235.08ZM176.345 240.2C176.131 240.2 176.025 240.147 176.025 240.04C176.425 238.067 176.691 236.253 176.825 234.6C176.985 232.947 177.065 231.453 177.065 230.12C177.065 227.587 176.905 225.52 176.585 223.92C176.291 222.32 176.038 221.107 175.825 220.28L176.785 219.6L180.025 221.32C180.105 222.147 180.171 222.987 180.225 223.84C180.278 224.667 180.305 225.52 180.305 226.4V227.16H180.625C182.038 223.16 184.025 220.667 186.585 219.68L187.425 220.44L186.465 225.04C186.278 224.987 186.078 224.947 185.865 224.92C185.678 224.893 185.505 224.88 185.345 224.88C184.251 224.88 183.385 225.293 182.745 226.12C182.131 226.92 181.571 228.107 181.065 229.68C180.558 231.227 179.931 233.133 179.185 235.4L177.825 239.6C177.665 239.787 177.425 239.933 177.105 240.04C176.785 240.147 176.531 240.2 176.345 240.2ZM188.629 250C188.415 250 188.309 249.933 188.309 249.8C188.975 246.733 189.442 243.827 189.709 241.08C189.975 238.36 190.109 235.867 190.109 233.6C190.109 231.733 190.029 229.947 189.869 228.24C189.709 226.533 189.509 224.987 189.269 223.6C189.029 222.213 188.789 221.107 188.549 220.28L189.549 219.6L192.749 221.2C193.042 223.253 193.162 225.453 193.109 227.8L193.429 227.88C194.175 226.2 195.002 224.72 195.909 223.44C196.842 222.16 197.802 221.16 198.789 220.44C199.775 219.72 200.722 219.36 201.629 219.36C202.829 219.36 203.695 219.787 204.229 220.64C204.789 221.467 205.069 222.547 205.069 223.88C205.069 225.16 204.829 226.56 204.349 228.08C203.895 229.573 203.162 231.067 202.149 232.56C201.135 234.053 199.802 235.44 198.149 236.72C196.495 238 194.482 239.04 192.109 239.84C191.842 241.653 191.549 243.373 191.229 245C190.909 246.627 190.602 248.067 190.309 249.32C190.122 249.507 189.842 249.667 189.469 249.8C189.122 249.933 188.842 250 188.629 250ZM192.429 237.6C194.562 236.853 196.269 235.867 197.549 234.64C198.855 233.387 199.802 232.093 200.389 230.76C201.002 229.4 201.309 228.2 201.309 227.16C201.309 226.28 201.162 225.56 200.869 225C200.602 224.44 200.082 224.16 199.309 224.16C198.829 224.16 198.255 224.4 197.589 224.88C196.949 225.36 196.282 226.133 195.589 227.2C194.922 228.24 194.295 229.627 193.709 231.36C193.149 233.067 192.722 235.147 192.429 237.6ZM213.193 239.88C211.513 239.88 210.219 239.267 209.313 238.04C208.406 236.813 207.953 235.213 207.953 233.24C207.953 231.987 208.126 230.693 208.473 229.36C208.846 228 209.446 226.693 210.273 225.44C211.126 224.187 212.273 223.08 213.713 222.12C215.153 221.16 216.953 220.427 219.113 219.92C220.046 220.24 220.686 220.827 221.033 221.68C221.379 222.533 221.553 223.4 221.553 224.28C221.233 225.587 220.633 226.707 219.753 227.64C218.899 228.573 217.926 229.347 216.833 229.96C215.739 230.547 214.699 231.013 213.713 231.36C212.726 231.68 211.953 231.893 211.393 232C211.526 233.387 211.886 234.387 212.473 235C213.086 235.613 213.779 235.92 214.553 235.92C215.779 235.92 216.926 235.4 217.993 234.36C219.059 233.293 220.033 231.84 220.913 230C220.966 229.84 221.059 229.76 221.193 229.76C221.326 229.76 221.513 229.827 221.753 229.96C221.993 230.067 222.206 230.187 222.393 230.32C221.673 232.08 220.806 233.693 219.793 235.16C218.806 236.6 217.739 237.747 216.592 238.6C215.473 239.453 214.339 239.88 213.193 239.88ZM211.393 230.4C212.993 229.973 214.299 229.427 215.313 228.76C216.326 228.067 217.073 227.347 217.553 226.6C218.033 225.827 218.273 225.12 218.273 224.48C218.273 224.107 218.153 223.787 217.913 223.52C217.673 223.227 217.326 223.08 216.872 223.08C216.259 223.08 215.539 223.347 214.713 223.88C213.913 224.387 213.179 225.173 212.513 226.24C211.873 227.307 211.499 228.693 211.393 230.4ZM227.544 239.88C227.357 239.88 227.264 239.84 227.264 239.76C227.584 237.707 227.81 235.8 227.944 234.04C228.077 232.253 228.144 230.48 228.144 228.72C228.144 228.16 228.13 227.453 228.104 226.6C228.104 225.747 228.077 224.84 228.024 223.88C227.464 223.827 226.89 223.76 226.304 223.68C225.744 223.573 225.21 223.453 224.704 223.32C224.597 223.267 224.477 223.107 224.344 222.84C224.237 222.573 224.144 222.307 224.064 222.04C223.984 221.747 223.93 221.533 223.904 221.4C223.904 221.267 223.93 221.2 223.984 221.2C224.037 221.173 224.064 221.16 224.064 221.16C224.65 221.267 225.277 221.347 225.944 221.4C226.637 221.453 227.29 221.48 227.904 221.48C227.85 220.36 227.784 219.28 227.704 218.24C227.65 217.2 227.57 216.307 227.464 215.56L228.424 214.88L231.664 216.6L231.424 221.28C232.41 221.147 233.277 220.973 234.024 220.76C234.77 220.52 235.437 220.293 236.024 220.08L236.424 220.72L235.224 223.52C233.917 223.787 232.584 223.933 231.224 223.96C231.09 225.8 230.93 227.68 230.744 229.6C230.557 231.493 230.33 233.28 230.064 234.96C229.824 236.64 229.544 238.093 229.224 239.32C229.064 239.507 228.784 239.64 228.384 239.72C228.01 239.827 227.73 239.88 227.544 239.88ZM252.254 240.12C251.507 240.12 250.787 240.08 250.094 240C249.427 239.947 248.574 239.76 247.534 239.44C247.4 239.227 247.294 238.973 247.214 238.68C247.134 238.36 247.094 238.133 247.094 238C247.094 237.813 247.107 237.72 247.134 237.72C247.32 237.72 247.72 237.827 248.334 238.04C248.974 238.227 249.867 238.32 251.014 238.32C253.28 238.32 255.107 237.867 256.494 236.96C257.88 236.053 258.574 234.893 258.574 233.48C258.574 232.52 258.24 231.627 257.574 230.8C256.934 229.947 256.12 229.133 255.134 228.36C254.174 227.587 253.2 226.8 252.214 226C251.254 225.2 250.44 224.36 249.774 223.48C249.134 222.6 248.814 221.64 248.814 220.6C248.814 220.067 248.974 219.427 249.294 218.68C249.614 217.933 250.24 217.16 251.174 216.36C252.134 215.56 253.534 214.813 255.374 214.12C257.214 213.427 259.667 212.867 262.734 212.44L263.414 213.48L262.094 216.92C260.787 216.227 259.28 215.88 257.574 215.88C256.747 215.88 255.96 215.987 255.214 216.2C254.467 216.413 253.854 216.773 253.374 217.28C252.894 217.787 252.654 218.48 252.654 219.36C252.654 220.133 252.907 220.867 253.414 221.56C253.92 222.227 254.56 222.893 255.334 223.56C256.134 224.2 256.974 224.853 257.854 225.52C258.734 226.187 259.56 226.893 260.334 227.64C261.134 228.36 261.787 229.147 262.294 230C262.8 230.853 263.054 231.787 263.054 232.8C263.054 233.44 262.907 234.187 262.614 235.04C262.32 235.867 261.787 236.667 261.014 237.44C260.24 238.213 259.147 238.853 257.734 239.36C256.32 239.867 254.494 240.12 252.254 240.12ZM273.353 240.32C272.073 240.32 270.899 239.987 269.833 239.32C268.766 238.68 267.913 237.733 267.273 236.48C266.633 235.2 266.313 233.627 266.313 231.76C266.313 230.48 266.553 229.173 267.033 227.84C267.539 226.507 268.353 225.253 269.473 224.08C270.593 222.907 272.099 221.92 273.993 221.12C275.886 220.32 278.219 219.813 280.993 219.6L281.433 220.72L279.513 222.92C280.179 223.72 280.713 224.64 281.113 225.68C281.539 226.72 281.753 228.08 281.753 229.76C281.753 230.987 281.579 232.227 281.233 233.48C280.913 234.733 280.406 235.88 279.713 236.92C279.019 237.933 278.139 238.747 277.073 239.36C276.033 240 274.793 240.32 273.353 240.32ZM273.793 236.68C274.966 236.68 275.979 236.333 276.833 235.64C277.686 234.92 278.339 234.067 278.793 233.08C279.246 232.093 279.473 231.16 279.473 230.28C279.473 229 279.339 227.707 279.073 226.4C278.806 225.093 278.206 223.893 277.273 222.8C275.966 223.013 274.753 223.493 273.633 224.24C272.513 224.987 271.619 225.933 270.953 227.08C270.286 228.2 269.953 229.48 269.953 230.92C269.953 232.573 270.286 233.947 270.953 235.04C271.619 236.133 272.566 236.68 273.793 236.68ZM286.415 240.24C286.202 240.24 286.095 240.173 286.095 240.04C286.815 236.973 287.309 234.08 287.575 231.36C287.842 228.613 287.975 226.107 287.975 223.84C287.975 222.08 287.895 220.387 287.735 218.76C287.575 217.133 287.375 215.667 287.135 214.36C286.895 213.027 286.655 211.96 286.415 211.16L287.415 210.52L290.615 212.04C290.935 214.173 291.069 216.48 291.015 218.96C290.989 221.44 290.842 223.947 290.575 226.48C290.309 228.987 289.962 231.373 289.535 233.64C289.135 235.907 288.709 237.88 288.255 239.56C288.069 239.747 287.775 239.907 287.375 240.04C286.975 240.173 286.655 240.24 286.415 240.24ZM311.383 240.12C311.196 240.12 310.929 240.067 310.583 239.96C310.263 239.853 310.023 239.72 309.863 239.56C309.409 238.467 309.009 237.133 308.663 235.56C308.316 233.96 308.036 232.4 307.823 230.88C307.103 232.64 306.263 234.2 305.303 235.56C304.343 236.893 303.356 237.947 302.343 238.72C301.329 239.493 300.356 239.88 299.423 239.88C298.276 239.88 297.449 239.453 296.943 238.6C296.463 237.747 296.223 236.667 296.223 235.36C296.223 232.987 296.396 230.6 296.743 228.2C297.089 225.773 297.423 223.267 297.743 220.68C297.903 220.52 298.183 220.387 298.583 220.28C298.983 220.173 299.276 220.12 299.463 220.12C299.649 220.12 299.743 220.173 299.743 220.28C299.583 221.8 299.449 223.293 299.343 224.76C299.236 226.227 299.183 227.573 299.183 228.8C299.183 230.667 299.343 232.187 299.663 233.36C300.009 234.507 300.636 235.08 301.543 235.08C302.476 235.08 303.476 234.427 304.543 233.12C305.636 231.813 306.596 229.867 307.423 227.28C307.396 226.96 307.383 226.667 307.383 226.4C307.383 226.133 307.383 225.893 307.383 225.68C307.383 224.373 307.409 223.387 307.463 222.72C307.543 222.027 307.636 221.347 307.743 220.68L310.943 219.28L311.943 219.84C311.543 221.013 311.223 222.427 310.983 224.08C310.743 225.733 310.623 227.307 310.623 228.8C310.623 229.52 310.649 230.413 310.703 231.48C310.783 232.547 310.863 233.653 310.943 234.8C311.049 235.92 311.169 236.96 311.303 237.92C311.436 238.853 311.556 239.547 311.663 240C311.663 240.08 311.569 240.12 311.383 240.12ZM318.013 239.88C317.826 239.88 317.733 239.84 317.733 239.76C318.053 237.707 318.279 235.8 318.413 234.04C318.546 232.253 318.613 230.48 318.613 228.72C318.613 228.16 318.599 227.453 318.573 226.6C318.573 225.747 318.546 224.84 318.493 223.88C317.933 223.827 317.359 223.76 316.773 223.68C316.213 223.573 315.679 223.453 315.173 223.32C315.066 223.267 314.946 223.107 314.813 222.84C314.706 222.573 314.613 222.307 314.533 222.04C314.453 221.747 314.399 221.533 314.373 221.4C314.373 221.267 314.399 221.2 314.453 221.2C314.506 221.173 314.533 221.16 314.533 221.16C315.119 221.267 315.746 221.347 316.413 221.4C317.106 221.453 317.759 221.48 318.373 221.48C318.319 220.36 318.253 219.28 318.173 218.24C318.119 217.2 318.039 216.307 317.933 215.56L318.893 214.88L322.133 216.6L321.893 221.28C322.879 221.147 323.746 220.973 324.493 220.76C325.239 220.52 325.906 220.293 326.493 220.08L326.893 220.72L325.693 223.52C324.386 223.787 323.053 223.933 321.693 223.96C321.559 225.8 321.399 227.68 321.213 229.6C321.026 231.493 320.799 233.28 320.533 234.96C320.293 236.64 320.013 238.093 319.692 239.32C319.533 239.507 319.253 239.64 318.853 239.72C318.479 239.827 318.199 239.88 318.013 239.88ZM331.672 217.2C331.005 217.2 330.498 216.96 330.152 216.48C329.805 215.973 329.632 215.467 329.632 214.96C329.632 214.187 329.938 213.533 330.552 213C331.165 212.467 332.058 212.12 333.232 211.96C333.685 212.307 333.992 212.72 334.152 213.2C334.338 213.653 334.432 214.093 334.432 214.52C334.432 215.347 334.138 216 333.552 216.48C332.965 216.96 332.338 217.2 331.672 217.2ZM329.472 239.52C329.285 239.52 329.192 239.48 329.192 239.4C329.565 237.24 329.818 235.28 329.952 233.52C330.112 231.76 330.192 230.187 330.192 228.8C330.192 226.613 330.072 224.827 329.832 223.44C329.592 222.053 329.365 220.973 329.152 220.2L330.112 219.6L333.352 221.16C333.378 221.587 333.392 222.027 333.392 222.48C333.418 222.907 333.432 223.347 333.432 223.8C333.432 226.307 333.205 228.827 332.752 231.36C332.325 233.867 331.738 236.4 330.992 238.96C330.832 239.12 330.578 239.253 330.232 239.36C329.912 239.467 329.658 239.52 329.472 239.52ZM344.329 240.32C343.049 240.32 341.876 239.987 340.809 239.32C339.743 238.68 338.889 237.733 338.249 236.48C337.609 235.2 337.289 233.627 337.289 231.76C337.289 230.48 337.529 229.173 338.009 227.84C338.516 226.507 339.329 225.253 340.449 224.08C341.569 222.907 343.076 221.92 344.969 221.12C346.863 220.32 349.196 219.813 351.969 219.6L352.409 220.72L350.489 222.92C351.156 223.72 351.689 224.64 352.089 225.68C352.516 226.72 352.729 228.08 352.729 229.76C352.729 230.987 352.556 232.227 352.209 233.48C351.889 234.733 351.383 235.88 350.689 236.92C349.996 237.933 349.116 238.747 348.049 239.36C347.009 240 345.769 240.32 344.329 240.32ZM344.769 236.68C345.943 236.68 346.956 236.333 347.809 235.64C348.663 234.92 349.316 234.067 349.769 233.08C350.223 232.093 350.449 231.16 350.449 230.28C350.449 229 350.316 227.707 350.049 226.4C349.783 225.093 349.183 223.893 348.249 222.8C346.943 223.013 345.729 223.493 344.609 224.24C343.489 224.987 342.596 225.933 341.929 227.08C341.263 228.2 340.929 229.48 340.929 230.92C340.929 232.573 341.263 233.947 341.929 235.04C342.596 236.133 343.543 236.68 344.769 236.68ZM369.192 239.88C369.005 239.88 368.912 239.84 368.912 239.76C369.099 238.213 369.245 236.707 369.352 235.24C369.459 233.773 369.512 232.427 369.512 231.2C369.512 229.333 369.339 227.827 368.992 226.68C368.645 225.507 368.032 224.92 367.152 224.92C366.032 224.92 364.899 225.867 363.752 227.76C362.605 229.653 361.445 232.427 360.272 236.08L359.352 238.96C359.192 239.12 358.939 239.253 358.592 239.36C358.272 239.467 358.019 239.52 357.832 239.52C357.645 239.52 357.552 239.467 357.552 239.36C358.085 236.56 358.405 234.107 358.512 232C358.619 229.893 358.592 228.08 358.432 226.56C358.272 225.013 358.059 223.733 357.792 222.72C357.552 221.68 357.352 220.84 357.192 220.2L358.152 219.6L361.392 221.16C361.525 223.293 361.565 225.4 361.512 227.48L361.792 227.52C362.885 225.307 364.099 223.52 365.432 222.16C366.765 220.8 368.045 220.12 369.272 220.12C370.392 220.12 371.205 220.547 371.712 221.4C372.219 222.227 372.472 223.307 372.472 224.64C372.472 226.987 372.312 229.387 371.992 231.84C371.699 234.267 371.352 236.76 370.952 239.32C370.792 239.507 370.512 239.64 370.112 239.72C369.712 239.827 369.405 239.88 369.192 239.88ZM379.634 240.24C379.047 240.24 378.487 240.213 377.954 240.16C377.42 240.107 376.74 239.947 375.914 239.68C375.78 239.573 375.62 239.333 375.434 238.96C375.274 238.56 375.194 238.253 375.194 238.04C375.194 237.933 375.234 237.88 375.314 237.88C375.447 237.88 375.807 237.96 376.394 238.12C376.98 238.253 377.767 238.32 378.754 238.32C380.06 238.32 381.14 238.067 381.994 237.56C382.847 237.027 383.274 236.28 383.274 235.32C383.274 234.68 383.047 234.067 382.594 233.48C382.167 232.893 381.634 232.32 380.994 231.76C380.354 231.173 379.7 230.573 379.034 229.96C378.394 229.347 377.847 228.693 377.394 228C376.967 227.28 376.754 226.493 376.754 225.64C376.754 225.24 376.874 224.747 377.114 224.16C377.354 223.573 377.834 222.973 378.554 222.36C379.274 221.747 380.354 221.173 381.794 220.64C383.234 220.107 385.14 219.68 387.514 219.36L388.394 220.12L387.114 223.68C386.607 223.333 386.02 223.053 385.354 222.84C384.714 222.6 384.087 222.48 383.474 222.48C382.7 222.48 382.007 222.653 381.394 223C380.807 223.32 380.514 223.907 380.514 224.76C380.514 225.373 380.754 225.987 381.234 226.6C381.714 227.187 382.3 227.787 382.994 228.4C383.714 228.987 384.42 229.613 385.114 230.28C385.807 230.92 386.394 231.627 386.874 232.4C387.354 233.147 387.594 233.96 387.594 234.84C387.594 235.347 387.5 235.907 387.314 236.52C387.127 237.133 386.754 237.72 386.194 238.28C385.66 238.84 384.86 239.307 383.794 239.68C382.754 240.053 381.367 240.24 379.634 240.24Z" fill="black"/>
</g>
<defs>
<clipPath id="clip0_0_1">
<rect width="412" height="372" fill="white"/>
</clipPath>
</defs>
</svg>